<svg xmlns="http://www.w3.org/2000/svg" xmlns:xlink="http://www.w3.org/1999/xlink" id="Layer_2" data-name="Layer 2" viewBox="0 0 1631.83 595.21"><defs><style>      .cls-1 {        fill: #faa819;      }      .cls-2 {        fill: #ed8a22;      }      .cls-3 {        fill: #767676;      }      .cls-4 {        opacity: .75;      }      .cls-4, .cls-5, .cls-6, .cls-7 {        fill: none;      }      .cls-8 {        fill: #006659;      }      .cls-6 {        clip-path: url(#clippath);      }      .cls-7 {        clip-path: url(#clippath-1);      }    </style><clipPath id="clippath"><rect class="cls-5" x="397.46" width="390.8" height="114.33"></rect></clipPath><clipPath id="clippath-1"><rect class="cls-5" x="397.46" width="390.8" height="114.33"></rect></clipPath></defs><g id="Layer_1-2" data-name="Layer 1"><g><g><path class="cls-3" d="m12.96,414.91v-94.83h35.39c9.95,0,18.43,1.66,25.43,4.98,7,3.32,12.37,8.46,16.11,15.41,3.73,6.96,5.6,15.97,5.6,27.03s-1.87,19.81-5.6,26.82c-3.73,7-9.1,12.19-16.11,15.55-7,3.37-15.48,5.05-25.43,5.05H12.96Zm13.13-11.33h21.98c5.25,0,9.95-.67,14.1-2,4.15-1.33,7.69-3.39,10.64-6.15,2.95-2.76,5.18-6.33,6.7-10.71,1.52-4.38,2.28-9.61,2.28-15.69v-2.76c0-6.27-.76-11.59-2.28-15.97-1.52-4.38-3.73-7.95-6.64-10.71-2.9-2.76-6.43-4.81-10.57-6.15-4.15-1.33-8.89-2-14.24-2h-21.98v72.16Z"></path><path class="cls-3" d="m181.46,414.91v-94.83h13.13v94.83h-13.13Z"></path><path class="cls-3" d="m274.5,414.91l37.46-94.83h17.28l37.6,94.83h-14.24l-9.26-23.5h-46.17l-9.12,23.5h-13.55Zm26.96-34.7h37.46l-11.47-29.72c-.28-.83-.69-1.98-1.24-3.46-.55-1.47-1.15-3.11-1.8-4.91-.65-1.8-1.29-3.64-1.94-5.53-.64-1.89-1.24-3.62-1.8-5.18h-.83c-.65,1.84-1.38,3.96-2.21,6.36-.83,2.4-1.66,4.72-2.49,6.98-.83,2.26-1.52,4.17-2.07,5.74l-11.61,29.72Z"></path><path class="cls-3" d="m487.65,416.56c-15.3,0-26.93-4.01-34.9-12.03-7.97-8.02-11.96-20.37-11.96-37.05,0-10.87,1.84-19.95,5.53-27.23,3.68-7.28,9.12-12.74,16.31-16.38,7.19-3.64,15.94-5.46,26.27-5.46,6.45,0,12.3.69,17.55,2.07,5.25,1.38,9.79,3.48,13.62,6.29,3.82,2.81,6.77,6.34,8.85,10.57,2.07,4.24,3.11,9.26,3.11,15.07h-13.41c0-4.05-.74-7.53-2.21-10.44-1.47-2.9-3.57-5.27-6.29-7.12-2.72-1.84-5.88-3.16-9.47-3.94-3.59-.78-7.42-1.17-11.47-1.17-5.53,0-10.46.69-14.79,2.07-4.33,1.38-7.97,3.55-10.92,6.5-2.95,2.95-5.21,6.73-6.77,11.33-1.57,4.61-2.35,10.09-2.35,16.45v2.9c0,8.57,1.31,15.53,3.94,20.87,2.63,5.35,6.43,9.24,11.4,11.68,4.98,2.44,10.96,3.66,17.97,3.66s12.95-.99,17.55-2.97c4.61-1.98,8.04-5,10.3-9.05,2.26-4.05,3.39-9.17,3.39-15.34v-1.66h-33.45v-11.2h46.72v49.9h-9.95l-1.38-12.03c-2.49,3.23-5.44,5.85-8.85,7.88-3.41,2.03-7.17,3.5-11.27,4.42-4.1.92-8.46,1.38-13.06,1.38Z"></path><path class="cls-3" d="m622.01,414.91v-94.83h12.72l46.03,62.48c.46.55,1.06,1.38,1.8,2.49.74,1.11,1.47,2.19,2.21,3.25.74,1.06,1.33,2,1.8,2.83h.55v-71.05h12.86v94.83h-12.03l-46.58-63.59c-.65-1.01-1.59-2.44-2.83-4.29-1.24-1.84-2.28-3.32-3.11-4.42h-.69v72.3h-12.72Z"></path><path class="cls-3" d="m833.37,416.56c-9.86,0-18.32-1.8-25.37-5.39-7.05-3.59-12.49-9.03-16.31-16.31-3.83-7.28-5.74-16.4-5.74-27.37s1.91-20.2,5.74-27.44c3.82-7.23,9.26-12.65,16.31-16.24,7.05-3.59,15.5-5.39,25.37-5.39s18.31,1.8,25.37,5.39c7.05,3.59,12.49,9.01,16.31,16.24,3.82,7.24,5.74,16.38,5.74,27.44s-1.91,20.09-5.74,27.37c-3.82,7.28-9.26,12.72-16.31,16.31-7.05,3.59-15.51,5.39-25.37,5.39Zm0-11.34c5.16,0,9.84-.69,14.03-2.07,4.19-1.38,7.74-3.57,10.64-6.57,2.9-2.99,5.14-6.77,6.7-11.34s2.35-9.97,2.35-16.24v-2.9c0-6.36-.79-11.82-2.35-16.38s-3.8-8.34-6.7-11.33c-2.9-2.99-6.45-5.18-10.64-6.57-4.19-1.38-8.87-2.07-14.03-2.07s-9.95.69-14.1,2.07c-4.15,1.38-7.7,3.57-10.64,6.57-2.95,3-5.18,6.77-6.71,11.33-1.52,4.56-2.28,10.02-2.28,16.38v2.9c0,6.27.76,11.68,2.28,16.24,1.52,4.56,3.75,8.34,6.71,11.34,2.95,3,6.5,5.18,10.64,6.57,4.15,1.38,8.85,2.07,14.1,2.07Z"></path><path class="cls-3" d="m1001.6,416.56c-5.16,0-10.11-.51-14.86-1.52-4.75-1.01-8.96-2.65-12.65-4.91-3.69-2.26-6.61-5.18-8.78-8.78-2.17-3.59-3.25-8.02-3.25-13.27,0-.46.02-.92.07-1.38.04-.46.07-.92.07-1.38h13.27c0,.28-.02.71-.07,1.31-.05.6-.07,1.13-.07,1.59,0,3.69,1.11,6.82,3.32,9.4,2.21,2.58,5.27,4.49,9.19,5.74,3.92,1.24,8.36,1.87,13.34,1.87,2.21,0,4.54-.14,6.98-.41s4.79-.76,7.05-1.45c2.26-.69,4.29-1.61,6.08-2.76,1.8-1.15,3.22-2.58,4.29-4.29,1.06-1.7,1.59-3.8,1.59-6.29,0-3.13-.9-5.74-2.7-7.81s-4.17-3.78-7.12-5.12c-2.95-1.33-6.29-2.53-10.02-3.59-3.73-1.06-7.58-2.09-11.54-3.11-3.96-1.01-7.81-2.19-11.54-3.52-3.73-1.33-7.07-2.99-10.02-4.98-2.95-1.98-5.32-4.45-7.12-7.4-1.8-2.95-2.7-6.54-2.7-10.78,0-3.96.8-7.51,2.42-10.64,1.61-3.13,4.01-5.78,7.19-7.95,3.18-2.16,7.12-3.82,11.82-4.98,4.7-1.15,10.09-1.73,16.17-1.73,4.98,0,9.61.53,13.89,1.59,4.29,1.06,8.06,2.67,11.33,4.84,3.27,2.17,5.83,4.91,7.67,8.22,1.84,3.32,2.77,7.33,2.77,12.03v1.66h-12.99v-2.07c0-3.13-.97-5.81-2.9-8.02-1.94-2.21-4.59-3.92-7.95-5.12-3.37-1.2-7.17-1.8-11.4-1.8-5.53,0-10.14.53-13.82,1.59-3.69,1.06-6.43,2.58-8.23,4.56-1.8,1.98-2.7,4.22-2.7,6.7,0,2.86.9,5.25,2.7,7.19s4.17,3.53,7.12,4.77c2.95,1.24,6.31,2.37,10.09,3.39,3.78,1.01,7.62,2.05,11.54,3.11,3.92,1.06,7.74,2.26,11.47,3.59,3.73,1.34,7.1,3,10.09,4.98,2.99,1.98,5.37,4.47,7.12,7.46,1.75,3,2.62,6.66,2.62,10.99,0,6.73-1.66,12.19-4.97,16.38-3.32,4.19-7.88,7.26-13.69,9.19-5.81,1.94-12.54,2.9-20.18,2.9Z"></path><path class="cls-3" d="m1150.07,414.91v-83.36h-32.49v-11.47h78.38v11.47h-32.76v83.36h-13.13Z"></path><path class="cls-3" d="m1277.65,414.91v-94.83h13.13v94.83h-13.13Z"></path><path class="cls-3" d="m1422.11,416.56c-9.68,0-17.88-1.77-24.61-5.32-6.73-3.55-11.87-8.94-15.41-16.17-3.55-7.23-5.32-16.43-5.32-27.58,0-16.5,4.01-28.8,12.03-36.91,8.02-8.11,19.17-12.16,33.45-12.16,8.11,0,15.3,1.31,21.56,3.94,6.27,2.63,11.17,6.59,14.72,11.89,3.55,5.3,5.32,11.96,5.32,19.98h-13.27c0-5.53-1.18-10.09-3.53-13.69s-5.64-6.29-9.88-8.09c-4.24-1.8-9.22-2.7-14.93-2.7-6.63,0-12.35,1.29-17.14,3.87-4.79,2.58-8.43,6.57-10.92,11.96-2.49,5.39-3.73,12.33-3.73,20.8v2.9c0,8.39,1.24,15.23,3.73,20.53,2.49,5.3,6.1,9.19,10.85,11.68,4.75,2.49,10.48,3.73,17.21,3.73,5.9,0,10.99-.87,15.28-2.63,4.29-1.75,7.6-4.45,9.95-8.09,2.35-3.64,3.52-8.22,3.52-13.75h12.86c0,8.2-1.82,14.93-5.46,20.18-3.64,5.25-8.59,9.17-14.86,11.75s-13.41,3.87-21.43,3.87Z"></path><path class="cls-3" d="m1584.12,416.56c-5.16,0-10.11-.51-14.86-1.52-4.75-1.01-8.96-2.65-12.65-4.91-3.69-2.26-6.61-5.18-8.78-8.78-2.17-3.59-3.25-8.02-3.25-13.27,0-.46.02-.92.07-1.38.04-.46.07-.92.07-1.38h13.27c0,.28-.02.71-.07,1.31-.05.6-.07,1.13-.07,1.59,0,3.69,1.11,6.82,3.32,9.4,2.21,2.58,5.27,4.49,9.19,5.74,3.92,1.24,8.36,1.87,13.34,1.87,2.21,0,4.54-.14,6.98-.41s4.79-.76,7.05-1.45c2.26-.69,4.29-1.61,6.08-2.76,1.8-1.15,3.22-2.58,4.29-4.29,1.06-1.7,1.59-3.8,1.59-6.29,0-3.13-.9-5.74-2.7-7.81s-4.17-3.78-7.12-5.12c-2.95-1.33-6.29-2.53-10.02-3.59-3.73-1.06-7.58-2.09-11.54-3.11-3.96-1.01-7.81-2.19-11.54-3.52-3.73-1.33-7.07-2.99-10.02-4.98-2.95-1.98-5.32-4.45-7.12-7.4-1.8-2.95-2.7-6.54-2.7-10.78,0-3.96.8-7.51,2.42-10.64,1.61-3.13,4.01-5.78,7.19-7.95,3.18-2.16,7.12-3.82,11.82-4.98,4.7-1.15,10.09-1.73,16.17-1.73,4.98,0,9.61.53,13.89,1.59,4.29,1.06,8.06,2.67,11.33,4.84,3.27,2.17,5.83,4.91,7.67,8.22,1.84,3.32,2.77,7.33,2.77,12.03v1.66h-12.99v-2.07c0-3.13-.97-5.81-2.9-8.02-1.94-2.21-4.59-3.92-7.95-5.12-3.37-1.2-7.17-1.8-11.4-1.8-5.53,0-10.14.53-13.82,1.59-3.69,1.06-6.43,2.58-8.23,4.56-1.8,1.98-2.7,4.22-2.7,6.7,0,2.86.9,5.25,2.7,7.19s4.17,3.53,7.12,4.77c2.95,1.24,6.31,2.37,10.09,3.39,3.78,1.01,7.62,2.05,11.54,3.11,3.92,1.06,7.74,2.26,11.47,3.59,3.73,1.34,7.1,3,10.09,4.98,2.99,1.98,5.37,4.47,7.12,7.46,1.75,3,2.62,6.66,2.62,10.99,0,6.73-1.66,12.19-4.97,16.38-3.32,4.19-7.88,7.26-13.69,9.19-5.81,1.94-12.54,2.9-20.18,2.9Z"></path></g><g><path class="cls-2" d="m574.55,63.69h.01s-32.7,27.95-32.7,27.95c-7.88,6.74-19.2,7.58-27.99,2.07-16.09-10.06-42.46-26.07-63.9-36.73-44.4-20.35-73.6,18.72-73.68,18.84,0,0,9.15-5.71,45.63,19.88,17.51,12.28,40.55,33.16,73.3,62.69,7.33,6.61,14.08,12.72,20.3,17.16.01-.02.04-.03.05-.06,5.1,4.07,11.57,6.5,18.6,6.5s13.33-2.38,18.4-6.35c35.5-24.74,98.36-98.55,140.72-129.32,51.05-37.04,94.96-20.82,94.96-20.82-69.16-59.17-160.88-2.26-213.71,38.17"></path><rect class="cls-8" x="330.64" y="83.59" width="38.36" height="186.42"></rect><path class="cls-8" d="m82.91,83.59H0v186.42h38.36v-66.32h47.08c18.3,0,32.39-5.21,42.27-15.63,9.88-10.41,14.8-25.25,14.8-44.49s-5.04-34.57-15.12-44.73c-10.08-10.18-24.92-15.25-44.48-15.25m14.67,79.93c-4.55,4.25-11.85,6.38-21.89,6.38h-37.07v-53.9h39.1c8.86,0,15.53,2.27,20,6.82,4.47,4.56,6.7,11.26,6.7,20.12,0,9.44-2.27,16.31-6.84,20.57"></path><path class="cls-8" d="m290.63,188.06c9.87-10.41,14.81-25.24,14.81-44.49s-5.05-34.57-15.13-44.73c-10.08-10.18-24.92-15.25-44.49-15.25h-84.26v32.39h63.93s15.14.01,15.14.01c8.86,0,15.53,2.27,20,6.82,4.47,4.56,6.71,11.26,6.71,20.12,0,9.44-2.28,16.31-6.84,20.57-4.55,4.25-11.86,6.4-21.9,6.4h-37.07v-.03h-38.6l.02.03h-1.37l94.5,100.04h49.2l-62.57-66.25h5.64c18.31,0,32.4-5.21,42.26-15.63"></path><rect class="cls-8" x="699.03" y="83.59" width="135.41" height="32.77"></rect><polygon class="cls-8" points="699.03 188.24 699.14 188.24 699.14 236.36 699.03 236.36 699.03 270.37 834.44 270.37 834.44 236.36 731.53 236.36 731.53 188.24 834.44 188.24 834.44 155.85 699.03 155.85 699.03 188.24"></polygon><path class="cls-8" d="m644.46,105.84c-6.37,6.32-12.72,12.67-18.99,18.92-7.46,7.43-11.64,17.5-11.64,28.04v117.21h41.15V110.22c0-5.5-6.63-8.25-10.53-4.38"></path><path class="cls-8" d="m436.22,118.25c-2.71-2.45-7.05-.52-7.05,3.13v148.63h41.16v-113c0-4.61-1.79-9.02-5-12.34l-29.11-26.43Z"></path><g class="cls-4"><g class="cls-6"><g class="cls-7"><path class="cls-1" d="m574.55,63.69h.01s-32.7,27.95-32.7,27.95c-7.88,6.74-19.2,7.58-27.99,2.07-16.09-10.06-42.46-26.07-63.9-36.73-21.67-9.94-39.71-5.72-52.52,1.24,14.11-6.82,35.07-9.36,62.3,8.11,54.07,34.7,68.99,64.15,106.51,37.94,37.53-26.23,137.4-124.02,222-78.76-69.16-59.17-160.88-2.26-213.71,38.17"></path></g></g></g><rect class="cls-8" x="1056.17" y="83.95" width="38.7" height="186.42"></rect><path class="cls-8" d="m947.61,83.95h-73.68v186.42h63.21c17.2,0,30.57-1.28,40.1-3.86,9.54-2.57,18.05-6.81,25.54-12.71,9.95-7.93,17.55-18.38,22.79-31.38,5.24-13,7.85-28.03,7.85-45.06,0-31.39-7.09-54.8-21.26-70.25-14.17-15.45-35.69-23.15-64.56-23.15m34.28,138.77c-8.04,9.33-21.04,13.98-39,13.98h-31.03v-119.98h35.75c15.92,0,27.63,4.9,35.12,14.68,7.5,9.8,11.24,25.11,11.24,45.95s-4.02,36.04-12.08,45.37"></path><polygon class="cls-8" points="1540.02 235.96 1540.02 83.99 1501.34 83.99 1501.34 270.37 1631.83 270.37 1631.83 235.96 1540.02 235.96"></polygon><path class="cls-8" d="m1369.44,83.99l-44.56,123.01h.4l-22.75,63.37h40.73l12.39-38.34h72.9l12.77,38.34h40.6l-67.8-186.38h-44.69Zm-5.67,116.66l28.14-79.34,26.17,79.34h-54.31Z"></path><path class="cls-8" d="m1260.5,206.83c-2.41,9.51-7.09,16.89-14.05,22.13-7.49,5.66-17.11,8.47-28.87,8.47-16.26,0-28.79-5.24-37.6-15.74-8.81-10.49-13.22-25.35-13.22-44.58s4.43-34.96,13.27-45.29c8.86-10.34,21.8-15.5,38.83-15.5,12,0,21.53,2.63,28.61,7.86,6.88,5.11,11.12,12.52,12.84,22.15h38.28c-1.5-19.74-9.09-35.05-22.84-45.93-13.92-11.02-32.88-16.53-56.89-16.53-29.55,0-52.19,8-67.94,24.03-15.75,16.02-23.62,39.1-23.62,69.2s7.72,52.4,23.17,68.74c15.46,16.34,37.11,24.51,64.94,24.51,24.18,0,43.79-5.93,58.81-17.79,14.49-11.42,22.65-26.68,24.52-45.76.05-.43.18-3.57.29-6.18h-37.24c-.54,2.65-1.18,5.77-1.28,6.2"></path></g><g><path class="cls-8" d="m171.27,501.85l-21.76,41.48v26.42h-6.8v-26.42l-21.96-41.48h7.67l17.68,35.26,17.58-35.26h7.58Z"></path><path class="cls-8" d="m198.13,567.18c-3.98-2.23-7.12-5.41-9.42-9.52-2.3-4.11-3.45-8.92-3.45-14.43s1.17-10.31,3.5-14.43c2.33-4.11,5.5-7.29,9.52-9.52,4.01-2.23,8.52-3.35,13.5-3.35s9.5,1.12,13.55,3.35c4.05,2.23,7.22,5.41,9.52,9.52,2.3,4.11,3.45,8.92,3.45,14.43s-1.17,10.23-3.5,14.38c-2.33,4.15-5.54,7.33-9.62,9.57s-8.61,3.35-13.6,3.35-9.47-1.12-13.46-3.35Zm23.17-4.96c2.98-1.59,5.39-3.98,7.24-7.19s2.77-7.14,2.77-11.8-.91-8.6-2.72-11.8c-1.81-3.21-4.21-5.6-7.19-7.19-2.98-1.59-6.22-2.38-9.71-2.38s-6.74.79-9.71,2.38c-2.98,1.59-5.36,3.98-7.14,7.19-1.78,3.21-2.67,7.14-2.67,11.8s.89,8.6,2.67,11.8c1.78,3.21,4.14,5.6,7.09,7.19,2.95,1.59,6.17,2.38,9.67,2.38s6.74-.79,9.71-2.38Z"></path><path class="cls-8" d="m303.88,516.71v53.04h-6.8v-9.33c-1.55,3.3-3.95,5.83-7.19,7.58-3.24,1.75-6.87,2.62-10.88,2.62-6.35,0-11.53-1.96-15.54-5.88-4.02-3.92-6.02-9.6-6.02-17.05v-30.99h6.7v30.21c0,5.77,1.44,10.17,4.32,13.21,2.88,3.04,6.82,4.57,11.8,4.57s9.2-1.62,12.24-4.86c3.04-3.24,4.57-8,4.57-14.28v-28.85h6.8Z"></path><path class="cls-8" d="m340.26,518.46c3.08-1.81,6.85-2.72,11.32-2.72v7.09h-1.85c-4.92,0-8.87,1.33-11.85,3.98-2.98,2.66-4.47,7.09-4.47,13.31v29.63h-6.8v-53.04h6.8v9.42c1.49-3.3,3.77-5.86,6.85-7.67Z"></path><path class="cls-2" d="m457.96,501.94v67.81h-13.6v-28.85h-29.05v28.85h-13.6v-67.81h13.6v27.88h29.05v-27.88h13.6Z"></path><path class="cls-2" d="m530.33,546.92h-39.35c.32,3.89,1.68,6.93,4.08,9.13,2.4,2.2,5.34,3.3,8.84,3.3,5.05,0,8.65-2.17,10.78-6.51h14.67c-1.55,5.18-4.53,9.44-8.94,12.78-4.41,3.34-9.81,5-16.22,5-5.18,0-9.83-1.15-13.94-3.45-4.11-2.3-7.32-5.55-9.62-9.76-2.3-4.21-3.45-9.07-3.45-14.57s1.13-10.46,3.4-14.67c2.27-4.21,5.44-7.45,9.52-9.71,4.08-2.27,8.78-3.4,14.09-3.4s9.7,1.1,13.75,3.3c4.05,2.2,7.19,5.33,9.42,9.38,2.23,4.05,3.35,8.69,3.35,13.94,0,1.94-.13,3.69-.39,5.25Zm-13.7-9.13c-.07-3.5-1.33-6.3-3.79-8.4-2.46-2.1-5.47-3.16-9.03-3.16-3.37,0-6.2,1.02-8.5,3.06-2.3,2.04-3.71,4.87-4.23,8.5h25.55Z"></path><path class="cls-2" d="m549.71,528.17c2.17-4.21,5.12-7.45,8.84-9.71,3.72-2.27,7.88-3.4,12.48-3.4,4.01,0,7.53.81,10.54,2.43,3.01,1.62,5.42,3.66,7.24,6.12v-7.67h13.7v53.82h-13.7v-7.87c-1.75,2.53-4.16,4.61-7.24,6.27-3.08,1.65-6.62,2.48-10.64,2.48-4.53,0-8.66-1.17-12.39-3.5-3.72-2.33-6.67-5.62-8.84-9.86-2.17-4.24-3.25-9.12-3.25-14.62s1.08-10.26,3.25-14.48Zm37.16,6.17c-1.3-2.36-3.04-4.18-5.25-5.44-2.2-1.26-4.57-1.89-7.09-1.89s-4.86.62-7,1.85c-2.14,1.23-3.87,3.03-5.2,5.39-1.33,2.36-1.99,5.17-1.99,8.4s.66,6.07,1.99,8.5c1.33,2.43,3.08,4.29,5.25,5.59,2.17,1.3,4.48,1.94,6.95,1.94s4.89-.63,7.09-1.89c2.2-1.26,3.95-3.08,5.25-5.44,1.29-2.36,1.94-5.2,1.94-8.5s-.65-6.14-1.94-8.5Z"></path><path class="cls-2" d="m638.75,497.86v71.89h-13.6v-71.89h13.6Z"></path><path class="cls-2" d="m677.32,527.11v26.04c0,1.81.44,3.12,1.31,3.93.87.81,2.35,1.21,4.42,1.21h6.31v11.46h-8.55c-11.46,0-17.2-5.57-17.2-16.71v-25.94h-6.41v-11.17h6.41v-13.31h13.7v13.31h12.05v11.17h-12.05Z"></path><path class="cls-2" d="m749.69,517.83c3.17,1.78,5.65,4.41,7.43,7.87,1.78,3.47,2.67,7.63,2.67,12.48v31.57h-13.6v-29.73c0-4.27-1.07-7.56-3.21-9.86-2.14-2.3-5.05-3.45-8.74-3.45s-6.72,1.15-8.89,3.45c-2.17,2.3-3.25,5.59-3.25,9.86v29.73h-13.6v-71.89h13.6v24.77c1.75-2.33,4.08-4.16,6.99-5.49,2.92-1.33,6.15-1.99,9.71-1.99,4.08,0,7.71.89,10.88,2.67Z"></path><path class="cls-8" d="m825.27,579.47h-6.8v-86.46h6.8v86.46Z"></path><path class="cls-8" d="m896.68,566.01c-5.12-2.95-9.15-7.06-12.1-12.34-2.95-5.28-4.42-11.25-4.42-17.92s1.47-12.64,4.42-17.92c2.95-5.28,6.98-9.39,12.1-12.34,5.12-2.95,10.82-4.42,17.1-4.42s12.08,1.47,17.2,4.42c5.12,2.95,9.13,7.06,12.05,12.34,2.92,5.28,4.37,11.25,4.37,17.92s-1.46,12.65-4.37,17.92c-2.91,5.28-6.93,9.39-12.05,12.34-5.12,2.95-10.85,4.42-17.2,4.42s-11.98-1.47-17.1-4.42Zm30.7-5c4.01-2.33,7.19-5.68,9.52-10.06,2.33-4.37,3.5-9.44,3.5-15.2s-1.17-10.82-3.5-15.16c-2.33-4.34-5.51-7.67-9.52-10.01-4.02-2.33-8.55-3.5-13.6-3.5s-9.59,1.17-13.6,3.5c-4.02,2.33-7.19,5.67-9.52,10.01-2.33,4.34-3.5,9.39-3.5,15.16s1.17,10.83,3.5,15.2c2.33,4.37,5.5,7.72,9.52,10.06,4.01,2.33,8.55,3.5,13.6,3.5s9.58-1.17,13.6-3.5Z"></path><path class="cls-8" d="m1012.96,516.71v53.04h-6.8v-9.33c-1.55,3.3-3.95,5.83-7.19,7.58-3.24,1.75-6.87,2.62-10.88,2.62-6.35,0-11.53-1.96-15.54-5.88-4.02-3.92-6.02-9.6-6.02-17.05v-30.99h6.7v30.21c0,5.77,1.44,10.17,4.32,13.21,2.88,3.04,6.82,4.57,11.8,4.57s9.2-1.62,12.24-4.86c3.04-3.24,4.57-8,4.57-14.28v-28.85h6.8Z"></path><path class="cls-8" d="m1049.35,518.46c3.08-1.81,6.85-2.72,11.32-2.72v7.09h-1.85c-4.92,0-8.87,1.33-11.85,3.98-2.98,2.66-4.47,7.09-4.47,13.31v29.63h-6.8v-53.04h6.8v9.42c1.49-3.3,3.77-5.86,6.85-7.67Z"></path><path class="cls-2" d="m1157.67,533.13c-1.72,3.17-4.41,5.73-8.06,7.67-3.66,1.94-8.27,2.91-13.84,2.91h-11.37v26.04h-13.6v-67.81h24.97c5.25,0,9.71.91,13.41,2.72,3.69,1.81,6.46,4.31,8.31,7.48,1.85,3.17,2.77,6.77,2.77,10.78,0,3.63-.86,7.03-2.57,10.2Zm-14.14-2.96c1.81-1.72,2.72-4.13,2.72-7.24,0-6.61-3.69-9.91-11.08-9.91h-10.78v19.72h10.78c3.75,0,6.54-.86,8.35-2.57Z"></path><path class="cls-2" d="m1200.31,517.58c2.82-1.62,6.04-2.43,9.67-2.43v14.28h-3.59c-4.27,0-7.5,1-9.67,3.01-2.17,2.01-3.25,5.51-3.25,10.49v26.81h-13.6v-53.82h13.6v8.35c1.75-2.85,4.03-5.08,6.85-6.7Z"></path><path class="cls-2" d="m1230.04,507.24c-1.59-1.52-2.38-3.42-2.38-5.68s.79-4.16,2.38-5.68c1.59-1.52,3.58-2.28,5.97-2.28s4.39.76,5.97,2.28c1.59,1.52,2.38,3.42,2.38,5.68s-.79,4.16-2.38,5.68c-1.59,1.52-3.58,2.28-5.97,2.28s-4.39-.76-5.97-2.28Zm12.68,8.7v53.82h-13.6v-53.82h13.6Z"></path><path class="cls-2" d="m1276.04,567.18c-4.15-2.3-7.4-5.55-9.76-9.76-2.36-4.21-3.55-9.07-3.55-14.57s1.21-10.36,3.64-14.57c2.43-4.21,5.75-7.46,9.96-9.76,4.21-2.3,8.9-3.45,14.09-3.45s9.88,1.15,14.09,3.45c4.21,2.3,7.53,5.55,9.96,9.76,2.43,4.21,3.64,9.07,3.64,14.57s-1.25,10.36-3.74,14.57c-2.49,4.21-5.86,7.46-10.1,9.76-4.24,2.3-8.99,3.45-14.23,3.45s-9.84-1.15-13.99-3.45Zm20.94-10.2c2.17-1.2,3.9-3,5.2-5.39,1.29-2.4,1.94-5.31,1.94-8.74,0-5.12-1.34-9.05-4.03-11.8-2.69-2.75-5.97-4.13-9.86-4.13s-7.14,1.38-9.76,4.13c-2.62,2.75-3.93,6.69-3.93,11.8s1.28,9.05,3.84,11.8c2.56,2.75,5.78,4.13,9.67,4.13,2.46,0,4.78-.6,6.95-1.8Z"></path><path class="cls-2" d="m1358.57,517.58c2.82-1.62,6.04-2.43,9.67-2.43v14.28h-3.59c-4.27,0-7.5,1-9.67,3.01-2.17,2.01-3.25,5.51-3.25,10.49v26.81h-13.6v-53.82h13.6v8.35c1.75-2.85,4.03-5.08,6.85-6.7Z"></path><path class="cls-2" d="m1388.29,507.24c-1.59-1.52-2.38-3.42-2.38-5.68s.79-4.16,2.38-5.68c1.59-1.52,3.58-2.28,5.97-2.28s4.39.76,5.97,2.28c1.59,1.52,2.38,3.42,2.38,5.68s-.79,4.16-2.38,5.68c-1.59,1.52-3.58,2.28-5.97,2.28s-4.39-.76-5.97-2.28Zm12.68,8.7v53.82h-13.6v-53.82h13.6Z"></path><path class="cls-2" d="m1440.22,527.11v26.04c0,1.81.44,3.12,1.31,3.93.87.81,2.35,1.21,4.42,1.21h6.31v11.46h-8.55c-11.46,0-17.2-5.57-17.2-16.71v-25.94h-6.41v-11.17h6.41v-13.31h13.7v13.31h12.05v11.17h-12.05Z"></path><path class="cls-2" d="m1523.57,515.93l-33.32,79.27h-14.48l11.66-26.81-21.57-52.46h15.25l13.89,37.6,14.09-37.6h14.48Z"></path></g></g></g></svg>